<?xml version="1.0" standalone="no"?>
<!DOCTYPE svg PUBLIC "-//W3C//DTD SVG 1.1//EN"
  "http://www.w3.org/Graphics/SVG/1.1/DTD/svg11.dtd">
<svg version="1.1" xmlns="http://www.w3.org/2000/svg" width="1792" height="1063" viewBox="-992 -32 1792 1063" id="ccdiagram"><defs><style type="text/css">@import url(&#x27;https://fonts.googleapis.com/css?family=Open+Sans:400,700&#x27;);</style></defs><g>0<g pointer-events=""><g opacity="1"><g><g><polygon points="-32 174, 416 433, 416 470, -160 803, -224 803, -672 544, -672 507, -96 174" fill="#000000" opacity="0.2"></polygon><polygon points="-32 167, 416 426, 416 463, -160 796, -224 796, -672 537, -672 500, -96 167" fill="#03a9f4" stroke-width="2" stroke="#818181"></polygon><polygon points="-64 185, 384 444, -192 777, -640 518" fill="#ffffff" stroke-width="0" stroke="#818181"></polygon></g></g></g></g>0<g pointer-events=""></g><g pointer-events="none"></g><g pointer-events=""><g><g cursor="cell"><line x1="-192" y1="370" x2="-107" y2="321" stroke="red" stroke-width="9" opacity="0"></line><line x1="-192" y1="370" x2="-107" y2="321" stroke="#000000" stroke-width="3" stroke-linecap="round"></line><polygon points="-96 315, -125 321, -110 323, -106 331, -96 315" stroke-linejoin="round" fill="#000000" stroke="#000000" stroke-width="1"></polygon></g></g><g><g cursor="cell"><line x1="-271" y1="564" x2="-47" y2="573" stroke="red" stroke-width="9" opacity="0"></line><line x1="-271" y1="564" x2="-47" y2="573" stroke="#000000" stroke-width="3" stroke-linecap="round"></line><polygon points="-32 574, -59 565, -52 573, -61 580, -32 574" stroke-linejoin="round" fill="#000000" stroke="#000000" stroke-width="1"></polygon></g></g><g><g cursor="cell"><line x1="-271" y1="564" x2="-287" y2="434" stroke="red" stroke-width="9" opacity="0"></line><line x1="-271" y1="564" x2="-287" y2="434" stroke="#000000" stroke-width="3" stroke-linecap="round"></line><polygon points="-288 426, -299 442, -287 437, -273 441, -288 426" stroke-linejoin="round" fill="#000000" stroke="#000000" stroke-width="1"></polygon></g></g><g><g cursor="cell"><line x1="-528" y1="712" x2="-363" y2="617" stroke="red" stroke-width="9" opacity="0"></line><line x1="-528" y1="712" x2="-363" y2="617" stroke="#000000" stroke-width="3" stroke-linecap="round"></line><polygon points="-352 611, -381 617, -366 619, -362 627, -352 611" stroke-linejoin="round" fill="#000000" stroke="#000000" stroke-width="1"></polygon></g></g></g><g pointer-events=""><g opacity="1"><g id="5b0476f1-9f5d-430a-a487-2c41a88f6f99" transform="translate(0 0)"><svg x="-110" y="173" height="148.981" width="91.956" viewBox="0 0 24.330047 39.417932"><g transform="translate(240.35 -115.335)"><path d="M-240.082 146.018v4.445l6.973 4.025v-4.445z" fill="#d2d2d4" fill-rule="evenodd"></path><path d="M-233.11 150.043l9.858-.003v4.445l-9.857.003z" fill="#d2d2d4" fill-rule="evenodd"></path><path d="M-223.252 150.04l6.967-4.027v4.445l-6.967 4.028z" fill="#b8b8bb" fill-rule="evenodd"></path><path d="M-223.252 150.04v4.445" fill="none" stroke="#83838a" stroke-width=".267"></path><path d="M302.99-2468.894l-36.732 47.87-59.823 7.876-47.87-36.732-7.875-59.823 36.732-47.87 59.822-7.876 47.87 36.732z" fill="#848586" stroke="#83838a" stroke-width="2.151" transform="matrix(.0995 .07485 -.12957 .05747 -573.282 269.258)"></path><path d="M-240.082 139.12v4.445l6.973 4.025v-4.445z" fill="#d2d2d4" fill-rule="evenodd"></path><path d="M-233.11 143.145l9.858-.003v4.445l-9.857.003z" fill="#d2d2d4" fill-rule="evenodd"></path><path d="M-223.252 143.143l6.967-4.028v4.445l-6.967 4.028z" fill="#b8b8bb" fill-rule="evenodd"></path><path d="M302.99-2468.894l-36.732 47.87-59.823 7.876-47.87-36.732-7.875-59.823 36.732-47.87 59.822-7.876 47.87 36.732z" fill="#848586" stroke="#83838a" stroke-width="2.151" transform="matrix(.0995 .07485 -.12957 .05747 -573.282 262.36)"></path><path d="M-240.082 132.222v4.445l6.973 4.025v-4.445z" fill="#d2d2d4" fill-rule="evenodd"></path><path d="M-233.11 136.247l9.858-.003v4.445l-9.857.003z" fill="#d2d2d4" fill-rule="evenodd"></path><path d="M-223.252 136.245l6.967-4.028v4.445l-6.967 4.028z" fill="#b8b8bb" fill-rule="evenodd"></path><path d="M302.99-2468.894l-36.732 47.87-59.823 7.876-47.87-36.732-7.875-59.823 36.732-47.87 59.822-7.876 47.87 36.732z" fill="#848586" stroke="#83838a" stroke-width="2.151" transform="matrix(.0995 .07485 -.12957 .05747 -573.282 255.462)"></path><path d="M-240.082 125.324v4.445l6.973 4.025v-4.445z" fill="#d2d2d4" fill-rule="evenodd"></path><path d="M-233.11 129.349l9.858-.003v4.445l-9.857.003z" fill="#d2d2d4" fill-rule="evenodd"></path><path d="M-223.252 129.347l6.967-4.028v4.445l-6.967 4.028z" fill="#b8b8bb" fill-rule="evenodd"></path><path d="M-223.252 129.347l-9.857.002-6.973-4.025-.003-5.694 6.967-4.028 9.857-.002 6.973 4.025.003 5.694z" fill="#ececed"></path><path d="M-240.082 125.324l6.964 4.074 9.866-.053 6.967-4.026M-233.118 129.398l.008 4.396M-223.252 129.345v4.445" fill="none" stroke="#83838a" stroke-width=".267"></path><path d="M-240.085 119.63l.003 10.139 6.972 4.025 9.857-.003 6.966-4.027-.002-10.14-6.972-4.025-9.857.003z" fill="none" stroke="#000000" stroke-width=".529"></path><path d="M-223.252 136.242v4.446M-233.11 136.247v4.445" fill="none" stroke="#83838a" stroke-width=".267"></path><path d="M-240.082 132.222v4.445l6.973 4.025 9.857-.003 6.966-4.027.002-4.446-6.968 4.026-9.865.054z" fill="none" stroke="#000000" stroke-width=".529"></path><path d="M-233.11 143.145v4.445M-223.252 143.141v4.446" fill="none" stroke="#83838a" stroke-width=".267"></path><path d="M-240.082 139.12v4.445l6.973 4.025 9.857-.003 6.966-4.026.002-4.446-6.968 4.028-9.857.003z" fill="none" stroke="#000000" stroke-width=".529"></path><path d="M-240.082 146.018v4.445l6.973 4.025 9.857-.003 6.967-4.026v-4.445l-6.967 4.026-9.857.003z" fill="none" stroke="#000000" stroke-width=".529"></path><path d="M-233.11 150.043v4.445" fill="none" stroke="#83838a" stroke-width=".267"></path><circle cx="-9.268" cy="254.217" fill="#4286c5" r="5.832" transform="scale(1.22475 .7071) rotate(45)"></circle><path d="M-227.78 122.24q.75.433 1.536.73.788.298 1.43.362l-.538.31q-.218.127-.73.046-.513-.08-1.181-.34-.669-.26-1.327-.64-.657-.38-1.108-.766-.45-.386-.59-.681-.138-.296.08-.422l.537-.31q.111.37.626.825.516.454 1.265.887zm-2.428 1.403q.749.432 1.536.73.788.297 1.43.361l-.538.31q-.218.127-.73.046-.513-.08-1.182-.34-.668-.26-1.326-.64-.657-.38-1.108-.766-.45-.386-.59-.681-.139-.296.08-.422l.537-.31q.11.37.626.825.516.454 1.265.887zm1.214-.701q.749.432 1.536.73.788.297 1.43.361l-.538.31q-.218.126-.73.046-.513-.08-1.181-.34-.669-.26-1.327-.64-.657-.38-1.108-.766-.45-.386-.59-.681-.138-.296.08-.422l.537-.31q.111.37.626.825.516.454 1.265.887zm3.642-2.103q.657.38 1.108.766.45.386.59.681.139.296-.08.422l-.404.234q-.218.126-.73.045-.513-.08-1.181-.34-.67-.26-1.327-.64-.657-.38-1.108-.766-.45-.386-.59-.681-.139-.296.08-.422l.404-.234q.218-.126.73-.045.513.08 1.182.34.668.26 1.326.64z" fill="#fff"></path></g></svg></g></g><g opacity="1"><g id="6a1942fb-cb2f-4a14-8ab9-6b471ab05a00" transform="translate(0 0)"><g><polygon points="-256 333, -192 370, -256 407, -320 370" fill="#fff"></polygon><polygon points="-320 407, -256 444, -256 407, -320 370" fill="#e6e6e6" stroke="#999"></polygon><polygon points="-256 444, -192 407, -192 370, -256 407" fill="#ccc" stroke="#999"></polygon><polygon points="-256 333, -320 370, -320 407, -256 444, -192 407, -192 370" fill="none" stroke="#000000" stroke-width="2"></polygon></g></g></g><g opacity="1"><g id="6e8a6051-4de1-43ab-bd35-c26694b2ac11" transform="translate(0 0)"><g><polygon points="0 481, 64 518, 0 555, -64 518" fill="#3c3c3c"></polygon><polygon points="-64 555, 0 592, 0 555, -64 518" fill="#232323" stroke="#5e5e5e"></polygon><polygon points="0 592, 64 555, 64 518, 0 555" fill="#090909" stroke="#5e5e5e"></polygon><polygon points="0 481, -64 518, -64 555, 0 592, 64 555, 64 518" fill="none" stroke="#000000" stroke-width="2"></polygon></g></g></g><g opacity="1"><g id="fb9eed70-2881-4a84-af8b-a620112733c3" transform="translate(0 0)"><svg x="-368" y="527" height="94" width="97" fill-rule="evenodd"><path d="M0 18.6v18.6l32.333 18.6h32.334L97 37.2V18.6L64.667 0H32.333L0 18.6z" fill="#ececed"></path><path d="M64.667 55.8L97 37.2v37.2L64.667 93V55.8z" fill="#b8b8bb"></path><path d="M32.333 55.8h32.334V93H32.333V55.8zM0 37.2v37.2L32.333 93V55.8L0 37.2z" fill="#d2d2d4"></path><g fill="none" stroke="#83838a" stroke-width="1.04"><path d="M.955 37.877L32.333 55.8h32.334l31.378-17.923M32.333 55.8v36.211M64.667 55.8v36.574"></path></g><path d="M97 18.6v55.8L64.667 93H32.333L0 74.4V18.6L32.333 0h32.334L97 18.6zM32.865 1.989L1.989 19.751v53.498l30.876 17.762h31.27l30.876-17.762V19.751L64.135 1.989h-31.27z" fill="#000000"></path><path d="M69.912 15.583c11.818 6.798 11.818 17.836 0 24.635-11.817 6.798-31.007 6.798-42.824 0-11.818-6.799-11.818-17.837 0-24.635 11.817-6.799 31.007-6.799 42.824 0z" fill="#4286c5"></path><path d="M49.584 14.774c1.824 1.049 1.824 2.753 0 3.802-1.824 1.05-4.786 1.05-6.61 0-1.824-1.049-1.824-2.753 0-3.802 1.824-1.05 4.786-1.05 6.61 0zM60.451 21.025c1.825 1.049 1.825 2.753 0 3.803-1.824 1.049-4.786 1.049-6.61 0-1.824-1.05-1.824-2.754 0-3.803s4.786-1.049 6.61 0zM71.319 27.276c1.824 1.05 1.824 2.754 0 3.803-1.825 1.049-4.787 1.049-6.611 0-1.824-1.049-1.824-2.753 0-3.803 1.824-1.049 4.786-1.049 6.611 0zM38.497 33.654c1.824 1.05 1.824 2.754 0 3.803-1.825 1.05-4.787 1.05-6.611 0-1.824-1.049-1.824-2.753 0-3.803 1.824-1.049 4.786-1.049 6.611 0z" fill="#fff"></path><path d="M47.458 15.878c.453.26.393.717-.133 1.02-.526.303-1.32.337-1.773.076-.452-.26-.392-.717.133-1.019.526-.303 1.321-.337 1.773-.077z" fill="#fff"></path><path d="M48.111 15.621c1.012.582 1.012 1.526 0 2.108-1.011.582-2.653.582-3.664 0-1.012-.582-1.012-1.526 0-2.108 1.011-.582 2.653-.582 3.664 0zM58.978 21.872c1.012.582 1.012 1.527 0 2.108-1.011.582-2.653.582-3.664 0-1.012-.581-1.012-1.526 0-2.108 1.011-.581 2.653-.581 3.664 0zM69.846 28.124c1.011.581 1.011 1.526 0 2.108-1.012.582-2.654.582-3.665 0-1.011-.582-1.011-1.527 0-2.108 1.011-.582 2.653-.582 3.665 0z" fill="#4286c5"></path><path d="M37.024 34.502c1.011.582 1.011 1.526 0 2.108-1.012.582-2.654.582-3.665 0-1.011-.582-1.011-1.526 0-2.108 1.011-.582 2.653-.582 3.665 0z" fill="#fff"></path><g fill="#fff"><path d="M52.301 25.172L37.719 33.56l.482.834 14.584-8.388-.484-.834z"></path><path d="M46.993 26.089l6.654-1.146-4.324 5.168c.189-1.691-.757-3.313-2.33-4.022z" stroke="#fff" stroke-width=".36"></path></g><g fill="#fff"><path d="M43.488 19.937l-6.057 13.797.886.387 6.056-13.798-.885-.386z"></path><path d="M39.76 23.812l4.676-4.854-.405 6.716c-.855-1.474-2.582-2.221-4.271-1.862z" stroke="#fff" stroke-width=".36"></path></g><g fill="#fff"><path d="M61.953 30.061l-23.985 3.483.14.955 23.985-3.486-.14-.952z"></path><path d="M56.68 28.957l6.608 1.387-5.936 3.209c.804-1.503.526-3.358-.672-4.596z" stroke="#fff" stroke-width=".36"></path></g><path d="M37.96 33.977l13.12-7.547M37.873 33.927l5.792-13.134M38.037 34.022l22.478-3.281" fill="#fff" stroke="#fff" stroke-width="1.93"></path></svg></g></g></g><g pointer-events=""><g opacity="1"><g id="12ceb70a-af58-4d92-955e-4ef361fc65b4" transform="translate(0 0)"><svg x="-400" y="546" overflow="visible"><g transform="scale(0.2830000000000002) matrix(0.707 -0.409 0.707 0.409 0 0)"><svg x="-313" y="-72" overflow="visible"><image href="https://cloudcraft-images.s3.amazonaws.com/8fa377db-82f7-4024-94da-dd0bea57330f/nginx-logo.png" width="626" height="144"></image></svg></g></svg></g></g><g opacity="1"><g id="a7eb32f2-d0f0-4bd7-be36-d537304c9464" transform="translate(0 0)"><svg x="-256" y="370" overflow="visible"><g transform="scale(0.1415000000000002) matrix(0.707 0.409 -0.707 0.409 0 0)"><svg x="-325" y="-325" overflow="visible"><image href="https://cloudcraft-images.s3.amazonaws.com/8fa377db-82f7-4024-94da-dd0bea57330f/flask-logo.png" width="650" height="650"></image></svg></g></svg></g></g><g opacity="1"><g id="6376e8be-e741-4387-9e03-985a89b91ae2" transform="translate(0 0)"><svg x="-16" y="324" overflow="visible"><g transform="scale(0.1415000000000002) matrix(0.707 -0.409 0.707 0.409 0 0)"><svg x="-878" y="-238.5" overflow="visible"><image href="https://cloudcraft-images.s3.amazonaws.com/8fa377db-82f7-4024-94da-dd0bea57330f/mongodb-logo.png" width="1756" height="477"></image></svg></g></svg></g></g><g opacity="1"><g id="2508746f-049d-43fe-bf53-9ad168da5fed" transform="translate(0 0)"><svg x="0" y="518" overflow="visible"><g transform="scale(0.1415000000000002) matrix(0.707 0.409 -0.707 0.409 0 0)"><svg x="-400" y="-282.5" overflow="visible"><image href="https://cloudcraft-images.s3.amazonaws.com/8fa377db-82f7-4024-94da-dd0bea57330f/800px-React-icon.svg.png" width="800" height="565"></image></svg></g></svg></g></g><g opacity="1"><g id="fff3e215-3db9-4be8-9347-c3518d0c8ffd" transform="translate(0 0)"><svg x="-528" y="712" overflow="visible"><g transform="scale(0.283) matrix(0.707 0.409 -0.707 0.409 0 0)"><svg x="-250" y="-305.5" overflow="visible"><image href="https://cloudcraft-images.s3.amazonaws.com/8fa377db-82f7-4024-94da-dd0bea57330f/IMG_3394.JPG" width="500" height="611"></image></svg></g></svg></g></g></g><g pointer-events=""></g><g pointer-events=""></g></g></svg>