<?xml version="1.0" encoding="utf-8"?>
<!-- Generator: Adobe Illustrator 22.0.1, SVG Export Plug-In . SVG Version: 6.00 Build 0)  -->
<svg version="1.1" id="Layer_1" xmlns="http://www.w3.org/2000/svg" xmlns:xlink="http://www.w3.org/1999/xlink" x="0px" y="0px"
	 viewBox="0 0 1000 274.6" style="enable-background:new 0 0 1000 274.6;" xml:space="preserve">
<style type="text/css">
	.st0{fill:#214363;}
	.st1{fill:#FF5739;}
</style>
<g>
	<g>
		<path class="st0" d="M407.5,177.1c0.2,61.8-34.8,97.5-80.6,97.5c-20.9,0-43.8-8.7-64.2-26.4c-16.9,17.1-40.2,26.4-64.2,26.4
			c-38.3,0-74.3-22.2-74.4-73.1v-48.9c0-10.6-4.4-15.7-16.9-17.6V91.3h41.4c28.9,0.1,44.5,18.5,44.5,52.5v48.8
			c0.1,13,8,19.5,17,19.5c8.4,0,17.5-5.7,21.6-17V91.3h65.9v101.4c0.1,13,10.8,19.6,20.7,19.6c15.6,0,22.2-15.1,22.2-36.2
			c0-5.3-0.4-11-1.2-16.9c-3.5-24.2-12.4-51.2-20.4-68.1h70.5C401.7,122.3,407.5,151.7,407.5,177.1"/>
		<path class="st0" d="M610.2,180.9c0,56.5-35.3,93.7-96,93.7s-96-37.2-96-93.5s35.3-93.8,96-93.9
			C574.9,87.1,610.2,124.6,610.2,180.9 M486.8,180.9c0,18.5,8.6,32.8,27.2,32.8c18.3,0,27.6-14.3,27.6-32.8
			c0-18.2-9.3-33.1-27.6-33.1C495.4,147.8,486.8,162.8,486.8,180.9"/>
		<path class="st0" d="M716.8,274.6c-60.7,0-96-37.7-96-94c0-56.6,35.8-93.7,96.2-93.7c16.1,0,31.7,3.1,43.4,10.6
			c12.2,7.3,19.8,19.7,19.8,38.1v23h-45.9l-0.6-2.9c-0.8-5.6-4.1-8.9-8.7-10.2c-2.4-0.7-5-1-7.5-1c-19.2,0-28,14-28,36.1
			c0,25,13.1,38.5,34.6,38.5c12.9,0,27-4,41.5-10.9l14.6,54.4C763.8,269.1,747.4,274.6,716.8,274.6"/>
	</g>
	<path class="st0" d="M888.6,148.5c-6.7,0-13.1,2.4-17.6,7.5c-6.7,7.5-8.7,19.9-7.9,29.7c0.7,8,2.2,16.4,7.9,22.5
		c4.9,5.3,10.5,6.7,17.5,7c9.4,0,20.5-1.5,26.6-2.8v-60.9C909.7,150.1,897.6,148.5,888.6,148.5 M867.6,87.6c18,0,35.4,5.7,47.6,17.5
		l10.8-13h57.8v120.4c0.3,8.8,4.6,13.8,13.3,15.2l2.9,0.3v43.7h-38.9c-15.5,0-25.7-6-33.1-19.6l-1.2-2.3
		c-15.8,16.5-36.2,24.9-57,24.9c-40.2,0-75.8-32.3-75.8-92.6C794.1,121.2,824.6,87.6,867.6,87.6"/>
	<path class="st1" d="M41.8,91.3c29.1,0.1,45.1,18.9,45.1,53.1L87,273H16.7V153.1c0-10.4-4.4-15-16.2-16.7L0,136.3v-45H41.8z"/>
	<path class="st1" d="M88.1,38c0,21-17,38-38.1,38c-21,0.1-38-17-38-38S29,0,50.1,0C71.1,0,88.1,17,88.1,38"/>
</g>
</svg>
